<?xml version="1.0" encoding="UTF-8" standalone="no"?><!DOCTYPE svg PUBLIC "-//W3C//DTD SVG 1.1//EN" "http://www.w3.org/Graphics/SVG/1.1/DTD/svg11.dtd"><svg width="350px" height="auto" viewBox="0 0 296 41" version="1.1" xmlns="http://www.w3.org/2000/svg" xmlns:xlink="http://www.w3.org/1999/xlink" xml:space="preserve" xmlns:serif="http://www.serif.com/" style="fill-rule:evenodd;clip-rule:evenodd;stroke-linejoin:round;stroke-miterlimit:2;"><path d="M6.008,12.442l0.124,2.985c1.973,-2.322 4.634,-3.482 7.983,-3.482c3.764,0 6.326,1.442 7.685,4.327c0.895,-1.293 2.06,-2.338 3.494,-3.133c1.434,-0.796 3.13,-1.194 5.086,-1.194c5.902,0 8.903,3.125 9.003,9.376l0,18.03l-4.601,0l0,-17.757c0,-1.923 -0.439,-3.361 -1.318,-4.315c-0.879,-0.953 -2.354,-1.43 -4.427,-1.43c-1.708,0 -3.125,0.51 -4.253,1.53c-1.127,1.02 -1.782,2.391 -1.964,4.116l0,17.856l-4.626,0l0,-17.632c0,-3.913 -1.915,-5.87 -5.745,-5.87c-3.017,0 -5.082,1.285 -6.192,3.855l0,19.647l-4.601,0l0,-26.909l4.352,0Z" style="fill:#fffffe;fill-opacity:0;fill-rule:nonzero;stroke:#fff;stroke-width:2px;"/><path d="M62.934,39.351c-0.265,-0.531 -0.481,-1.476 -0.647,-2.835c-2.138,2.222 -4.692,3.332 -7.659,3.332c-2.653,0 -4.829,-0.75 -6.529,-2.25c-1.699,-1.501 -2.549,-3.403 -2.549,-5.708c0,-2.802 1.066,-4.978 3.196,-6.528c2.131,-1.55 5.127,-2.325 8.99,-2.325l4.477,0l0,-2.114c0,-1.608 -0.481,-2.889 -1.443,-3.843c-0.961,-0.953 -2.379,-1.43 -4.252,-1.43c-1.642,0 -3.018,0.415 -4.129,1.244c-1.11,0.829 -1.666,1.832 -1.666,3.009l-4.626,0c0,-1.343 0.477,-2.64 1.43,-3.892c0.954,-1.252 2.247,-2.242 3.88,-2.972c1.633,-0.729 3.428,-1.094 5.384,-1.094c3.101,0 5.53,0.775 7.287,2.325c1.758,1.55 2.669,3.685 2.736,6.404l0,12.385c0,2.47 0.315,4.435 0.945,5.894l0,0.398l-4.825,0Zm-7.635,-3.507c1.443,0 2.81,-0.373 4.104,-1.119c1.293,-0.746 2.23,-1.716 2.81,-2.909l0,-5.521l-3.606,0c-5.637,0 -8.456,1.649 -8.456,4.949c0,1.442 0.481,2.569 1.443,3.382c0.961,0.812 2.196,1.218 3.705,1.218Z" style="fill:#fffffe;fill-opacity:0;fill-rule:nonzero;stroke:#fff;stroke-width:2px;"/><path d="M87.033,16.571c-0.697,-0.116 -1.451,-0.174 -2.264,-0.174c-3.017,0 -5.065,1.284 -6.142,3.854l0,19.1l-4.601,0l0,-26.909l4.476,0l0.075,3.109c1.509,-2.404 3.647,-3.606 6.416,-3.606c0.896,0 1.575,0.116 2.04,0.348l0,4.278Z" style="fill:#fffffe;fill-opacity:0;fill-rule:nonzero;stroke:#fff;stroke-width:2px;"/><path d="M98.771,26.891l-2.885,3.01l0,9.45l-4.601,0l0,-38.199l4.601,0l0,23.103l2.462,-2.959l8.381,-8.854l5.596,0l-10.47,11.241l11.688,15.668l-5.396,0l-9.376,-12.46Z" style="fill:#fffffe;fill-opacity:0;fill-rule:nonzero;stroke:#fff;stroke-width:2px;"/><path d="M121.676,15.7c2.039,-2.503 4.692,-3.755 7.958,-3.755c5.687,0 8.555,3.208 8.605,9.624l0,17.782l-4.601,0l0,-17.806c-0.017,-1.94 -0.46,-3.374 -1.331,-4.303c-0.87,-0.928 -2.225,-1.393 -4.066,-1.393c-1.492,0 -2.802,0.398 -3.929,1.194c-1.128,0.796 -2.006,1.84 -2.636,3.134l0,19.174l-4.601,0l0,-38.199l4.601,0l0,14.548Z" style="fill:#fffffe;fill-opacity:0;fill-rule:nonzero;stroke:#fff;stroke-width:2px;"/><path d="M156.294,39.848c-3.648,0 -6.615,-1.197 -8.903,-3.593c-2.288,-2.396 -3.432,-5.6 -3.432,-9.612l0,-0.846c0,-2.669 0.51,-5.052 1.529,-7.15c1.02,-2.097 2.446,-3.738 4.278,-4.924c1.832,-1.185 3.817,-1.778 5.956,-1.778c3.498,0 6.217,1.152 8.157,3.457c1.94,2.304 2.91,5.604 2.91,9.898l0,1.915l-18.229,0c0.066,2.652 0.841,4.795 2.325,6.428c1.484,1.634 3.37,2.45 5.658,2.45c1.624,0 3.001,-0.331 4.128,-0.995c1.127,-0.663 2.114,-1.542 2.959,-2.636l2.811,2.189c-2.255,3.465 -5.637,5.197 -10.147,5.197Zm-0.572,-24.123c-1.857,0 -3.415,0.676 -4.675,2.027c-1.261,1.351 -2.04,3.245 -2.338,5.683l13.479,0l0,-0.349c-0.133,-2.337 -0.763,-4.149 -1.89,-5.434c-1.127,-1.284 -2.653,-1.927 -4.576,-1.927Z" style="fill:#fffffe;fill-opacity:0;fill-rule:nonzero;stroke:#fff;stroke-width:2px;"/><path d="M188.724,39.351c-0.266,-0.531 -0.481,-1.476 -0.647,-2.835c-2.139,2.222 -4.692,3.332 -7.66,3.332c-2.652,0 -4.829,-0.75 -6.528,-2.25c-1.699,-1.501 -2.549,-3.403 -2.549,-5.708c0,-2.802 1.065,-4.978 3.196,-6.528c2.13,-1.55 5.127,-2.325 8.99,-2.325l4.476,0l0,-2.114c0,-1.608 -0.48,-2.889 -1.442,-3.843c-0.962,-0.953 -2.379,-1.43 -4.253,-1.43c-1.641,0 -3.017,0.415 -4.128,1.244c-1.111,0.829 -1.666,1.832 -1.666,3.009l-4.626,0c0,-1.343 0.477,-2.64 1.43,-3.892c0.953,-1.252 2.247,-2.242 3.88,-2.972c1.633,-0.729 3.428,-1.094 5.384,-1.094c3.1,0 5.529,0.775 7.287,2.325c1.757,1.55 2.669,3.685 2.735,6.404l0,12.385c0,2.47 0.315,4.435 0.945,5.894l0,0.398l-4.824,0Zm-7.635,-3.507c1.442,0 2.81,-0.373 4.103,-1.119c1.293,-0.746 2.23,-1.716 2.81,-2.909l0,-5.521l-3.606,0c-5.637,0 -8.455,1.649 -8.455,4.949c0,1.442 0.481,2.569 1.442,3.382c0.962,0.812 2.197,1.218 3.706,1.218Z" style="fill:#fffffe;fill-opacity:0;fill-rule:nonzero;stroke:#fff;stroke-width:2px;"/><path d="M212.822,16.571c-0.696,-0.116 -1.451,-0.174 -2.263,-0.174c-3.017,0 -5.065,1.284 -6.143,3.854l0,19.1l-4.601,0l0,-26.909l4.477,0l0.075,3.109c1.508,-2.404 3.647,-3.606 6.416,-3.606c0.895,0 1.575,0.116 2.039,0.348l0,4.278Z" style="fill:#fffffe;fill-opacity:0;fill-rule:nonzero;stroke:#fff;stroke-width:2px;"/><path d="M215.458,25.673c0,-4.128 0.979,-7.449 2.935,-9.96c1.956,-2.512 4.518,-3.768 7.685,-3.768c3.15,0 5.645,1.078 7.485,3.233l0,-14.026l4.601,0l0,38.199l-4.228,0l-0.223,-2.885c-1.841,2.255 -4.402,3.382 -7.685,3.382c-3.117,0 -5.658,-1.276 -7.623,-3.829c-1.964,-2.554 -2.947,-5.886 -2.947,-9.998l0,-0.348Zm4.601,0.522c0,3.051 0.63,5.438 1.89,7.162c1.26,1.725 3.001,2.587 5.223,2.587c2.918,0 5.048,-1.31 6.391,-3.929l0,-12.361c-1.376,-2.536 -3.49,-3.805 -6.341,-3.805c-2.255,0 -4.013,0.871 -5.273,2.612c-1.26,1.741 -1.89,4.319 -1.89,7.734Z" style="fill:#fffffe;fill-opacity:0;fill-rule:nonzero;stroke:#fff;stroke-width:2px;"/><path d="M245.401,36.939c0,-0.796 0.236,-1.459 0.709,-1.99c0.472,-0.53 1.181,-0.796 2.126,-0.796c0.945,0 1.662,0.266 2.151,0.796c0.49,0.531 0.734,1.194 0.734,1.99c0,0.762 -0.244,1.401 -0.734,1.915c-0.489,0.514 -1.206,0.771 -2.151,0.771c-0.945,0 -1.654,-0.257 -2.126,-0.771c-0.473,-0.514 -0.709,-1.153 -0.709,-1.915Z" style="fill:#fffffe;fill-opacity:0;fill-rule:nonzero;stroke:#fff;stroke-width:2px;"/><path d="M263.705,39.351l-4.601,0l0,-26.909l4.601,0l0,26.909Zm-4.974,-34.046c0,-0.746 0.228,-1.376 0.684,-1.89c0.456,-0.514 1.132,-0.771 2.027,-0.771c0.895,0 1.575,0.257 2.039,0.771c0.464,0.514 0.697,1.144 0.697,1.89c0,0.746 -0.233,1.368 -0.697,1.865c-0.464,0.497 -1.144,0.746 -2.039,0.746c-0.895,0 -1.571,-0.249 -2.027,-0.746c-0.456,-0.497 -0.684,-1.119 -0.684,-1.865Z" style="fill:#fffffe;fill-opacity:0;fill-rule:nonzero;stroke:#fff;stroke-width:2px;"/><path d="M269.848,25.648c0,-2.636 0.518,-5.007 1.554,-7.113c1.036,-2.105 2.479,-3.73 4.327,-4.874c1.849,-1.144 3.959,-1.716 6.33,-1.716c3.664,0 6.627,1.268 8.891,3.805c2.263,2.537 3.394,5.911 3.394,10.122l0,0.323c0,2.62 -0.501,4.97 -1.504,7.051c-1.003,2.08 -2.438,3.701 -4.303,4.862c-1.865,1.16 -4.008,1.74 -6.429,1.74c-3.647,0 -6.602,-1.268 -8.866,-3.805c-2.263,-2.536 -3.394,-5.894 -3.394,-10.072l0,-0.323Zm4.626,0.547c0,2.984 0.692,5.38 2.076,7.187c1.385,1.808 3.237,2.711 5.558,2.711c2.338,0 4.195,-0.916 5.571,-2.748c1.376,-1.832 2.064,-4.398 2.064,-7.697c0,-2.951 -0.7,-5.343 -2.101,-7.175c-1.401,-1.832 -3.262,-2.748 -5.583,-2.748c-2.272,0 -4.104,0.904 -5.496,2.711c-1.393,1.807 -2.089,4.393 -2.089,7.759Z" style="fill:#fffffe;fill-opacity:0;fill-rule:nonzero;stroke:#fff;stroke-width:2px;"/></svg>