<?xml version="1.0" encoding="UTF-8" standalone="no"?><!DOCTYPE svg PUBLIC "-//W3C//DTD SVG 1.1//EN" "http://www.w3.org/Graphics/SVG/1.1/DTD/svg11.dtd"><svg width="300px" height="auto" viewBox="0 0 408 55" version="1.1" xmlns="http://www.w3.org/2000/svg" xmlns:xlink="http://www.w3.org/1999/xlink" xml:space="preserve" xmlns:serif="http://www.serif.com/" style="fill-rule:evenodd;clip-rule:evenodd;stroke-linejoin:round;stroke-miterlimit:2;"><path d="M12.29,16.606l0.365,4.212c2.542,-3.25 5.957,-4.875 10.246,-4.875c4.532,0 7.593,1.802 9.185,5.405c2.432,-3.603 5.946,-5.405 10.545,-5.405c7.272,0 11.008,4.399 11.207,13.198l0,23.344l-11.207,0l0,-22.648c0,-1.835 -0.31,-3.172 -0.929,-4.012c-0.619,-0.84 -1.746,-1.26 -3.382,-1.26c-2.211,0 -3.858,0.983 -4.941,2.951l0.033,0.464l0,24.505l-11.208,0l0,-22.582c0,-1.879 -0.298,-3.238 -0.895,-4.078c-0.597,-0.84 -1.735,-1.26 -3.415,-1.26c-2.145,0 -3.78,0.983 -4.908,2.951l0,24.969l-11.175,0l0,-35.879l10.479,0Z" style="fill:#fffffe;fill-opacity:0;fill-rule:nonzero;stroke:#fff;stroke-width:2.67px;"/><path d="M80.432,52.485c-0.398,-0.73 -0.752,-1.802 -1.061,-3.217c-2.056,2.587 -4.93,3.88 -8.621,3.88c-3.383,0 -6.256,-1.023 -8.622,-3.067c-2.365,-2.045 -3.548,-4.615 -3.548,-7.71c0,-3.891 1.437,-6.831 4.311,-8.82c2.874,-1.99 7.052,-2.985 12.534,-2.985l3.449,0l0,-1.89c0,-3.294 -1.426,-4.94 -4.278,-4.94c-2.653,0 -3.979,1.304 -3.979,3.912l-11.175,0c0,-3.47 1.476,-6.289 4.427,-8.455c2.951,-2.167 6.715,-3.25 11.291,-3.25c4.576,0 8.19,1.116 10.843,3.349c2.653,2.233 4.012,5.295 4.078,9.185l0,15.884c0.045,3.293 0.553,5.814 1.526,7.56l0,0.564l-11.175,0Zm-6.997,-7.295c1.393,0 2.548,-0.299 3.466,-0.896c0.917,-0.597 1.575,-1.271 1.973,-2.022l0,-5.737l-3.25,0c-3.891,0 -5.836,1.746 -5.836,5.239c0,1.017 0.343,1.841 1.028,2.471c0.685,0.63 1.558,0.945 2.619,0.945Z" style="fill:#fffffe;fill-opacity:0;fill-rule:nonzero;stroke:#fff;stroke-width:2.67px;"/><path d="M117.968,26.72l-3.68,-0.265c-3.515,0 -5.77,1.105 -6.765,3.316l0,22.714l-11.174,0l0,-35.879l10.478,0l0.365,4.609c1.879,-3.514 4.498,-5.272 7.858,-5.272c1.194,0 2.233,0.133 3.117,0.398l-0.199,10.379Z" style="fill:#fffffe;fill-opacity:0;fill-rule:nonzero;stroke:#fff;stroke-width:2.67px;"/><path d="M136.405,39.121l-3.15,3.151l0,10.213l-11.175,0l0,-50.966l11.175,0l0,27.058l1.127,-1.492l8.423,-10.479l13.396,0l-12.567,14.756l13.396,21.123l-12.8,0l-7.825,-13.364Z" style="fill:#fffffe;fill-opacity:0;fill-rule:nonzero;stroke:#fff;stroke-width:2.67px;"/><path d="M170.062,20.453c2.387,-3.007 5.438,-4.51 9.151,-4.51c3.957,0 6.942,1.172 8.953,3.515c2.012,2.343 3.04,5.803 3.084,10.379l0,22.648l-11.208,0l0,-22.383c0,-1.901 -0.386,-3.299 -1.16,-4.195c-0.774,-0.895 -2.089,-1.342 -3.946,-1.342c-2.299,0 -3.924,0.729 -4.874,2.188l0,25.732l-11.175,0l0,-50.933l11.175,0l0,18.901Z" style="fill:#fffffe;fill-opacity:0;fill-rule:nonzero;stroke:#fff;stroke-width:2.67px;"/><path d="M214.826,53.148c-5.504,0 -9.958,-1.642 -13.363,-4.924c-3.404,-3.283 -5.106,-7.555 -5.106,-12.816l0,-0.929c0,-3.669 0.68,-6.908 2.039,-9.716c1.36,-2.807 3.344,-4.979 5.952,-6.515c2.609,-1.537 5.704,-2.305 9.285,-2.305c5.04,0 9.019,1.564 11.937,4.692c2.918,3.128 4.377,7.489 4.377,13.081l0,4.344l-22.217,0c0.398,2.012 1.272,3.593 2.62,4.742c1.348,1.15 3.095,1.724 5.239,1.724c3.537,0 6.3,-1.238 8.29,-3.713l5.106,6.035c-1.392,1.923 -3.365,3.454 -5.918,4.592c-2.554,1.139 -5.3,1.708 -8.241,1.708Zm-1.26,-28.583c-3.271,0 -5.217,2.166 -5.836,6.499l11.275,0l0,-0.862c0.044,-1.791 -0.409,-3.178 -1.36,-4.162c-0.951,-0.984 -2.31,-1.475 -4.079,-1.475Z" style="fill:#fffffe;fill-opacity:0;fill-rule:nonzero;stroke:#fff;stroke-width:2.67px;"/><path d="M254.651,52.485c-0.398,-0.73 -0.752,-1.802 -1.061,-3.217c-2.056,2.587 -4.93,3.88 -8.622,3.88c-3.382,0 -6.256,-1.023 -8.621,-3.067c-2.366,-2.045 -3.548,-4.615 -3.548,-7.71c0,-3.891 1.437,-6.831 4.311,-8.82c2.873,-1.99 7.051,-2.985 12.534,-2.985l3.448,0l0,-1.89c0,-3.294 -1.426,-4.94 -4.277,-4.94c-2.653,0 -3.979,1.304 -3.979,3.912l-11.175,0c0,-3.47 1.476,-6.289 4.427,-8.455c2.951,-2.167 6.714,-3.25 11.29,-3.25c4.576,0 8.191,1.116 10.844,3.349c2.652,2.233 4.012,5.295 4.078,9.185l0,15.884c0.044,3.293 0.553,5.814 1.525,7.56l0,0.564l-11.174,0Zm-6.997,-7.295c1.393,0 2.548,-0.299 3.465,-0.896c0.918,-0.597 1.575,-1.271 1.973,-2.022l0,-5.737l-3.249,0c-3.891,0 -5.836,1.746 -5.836,5.239c0,1.017 0.342,1.841 1.028,2.471c0.685,0.63 1.558,0.945 2.619,0.945Z" style="fill:#fffffe;fill-opacity:0;fill-rule:nonzero;stroke:#fff;stroke-width:2.67px;"/><path d="M292.187,26.72l-3.681,-0.265c-3.515,0 -5.769,1.105 -6.764,3.316l0,22.714l-11.175,0l0,-35.879l10.479,0l0.364,4.609c1.879,-3.514 4.499,-5.272 7.859,-5.272c1.194,0 2.233,0.133 3.117,0.398l-0.199,10.379Z" style="fill:#fffffe;fill-opacity:0;fill-rule:nonzero;stroke:#fff;stroke-width:2.67px;"/><path d="M294.177,34.28c0,-5.681 1.226,-10.158 3.68,-13.429c2.454,-3.272 5.88,-4.908 10.28,-4.908c3.205,0 5.902,1.26 8.09,3.78l0,-18.171l11.208,0l0,50.933l-10.047,0l-0.564,-3.847c-2.299,3.007 -5.217,4.51 -8.754,4.51c-4.266,0 -7.648,-1.636 -10.146,-4.908c-2.498,-3.271 -3.747,-7.925 -3.747,-13.96Zm11.174,0.697c0,6.366 1.857,9.549 5.571,9.549c2.476,0 4.244,-1.039 5.305,-3.117l0,-13.661c-1.016,-2.122 -2.763,-3.183 -5.239,-3.183c-3.448,0 -5.316,2.785 -5.604,8.356l-0.033,2.056Z" style="fill:#fffffe;fill-opacity:0;fill-rule:nonzero;stroke:#fff;stroke-width:2.67px;"/><path d="M340.699,41.642c1.768,0 3.239,0.525 4.41,1.575c1.172,1.05 1.758,2.393 1.758,4.028c0,1.636 -0.586,2.979 -1.758,4.029c-1.171,1.05 -2.642,1.575 -4.41,1.575c-1.791,0 -3.266,-0.53 -4.427,-1.591c-1.16,-1.061 -1.741,-2.399 -1.741,-4.013c0,-1.613 0.581,-2.951 1.741,-4.012c1.161,-1.061 2.636,-1.591 4.427,-1.591Z" style="fill:#fffffe;fill-opacity:0;fill-rule:nonzero;stroke:#fff;stroke-width:2.67px;"/><path d="M366.099,52.485l-11.208,0l0,-35.879l11.208,0l0,35.879Zm-11.871,-45.13c0,-1.592 0.575,-2.896 1.724,-3.913c1.15,-1.017 2.642,-1.525 4.477,-1.525c1.835,0 3.327,0.508 4.476,1.525c1.15,1.017 1.725,2.321 1.725,3.913c0,1.592 -0.575,2.896 -1.725,3.913c-1.149,1.017 -2.641,1.525 -4.476,1.525c-1.835,0 -3.327,-0.508 -4.477,-1.525c-1.149,-1.017 -1.724,-2.321 -1.724,-3.913Z" style="fill:#fffffe;fill-opacity:0;fill-rule:nonzero;stroke:#fff;stroke-width:2.67px;"/><path d="M371.57,34.214c0,-3.581 0.697,-6.77 2.089,-9.567c1.393,-2.796 3.394,-4.946 6.002,-6.449c2.609,-1.503 5.67,-2.255 9.185,-2.255c5.372,0 9.605,1.664 12.7,4.991c3.095,3.327 4.643,7.853 4.643,13.578l0,0.398c0,5.593 -1.553,10.031 -4.659,13.314c-3.106,3.282 -7.312,4.924 -12.617,4.924c-5.107,0 -9.208,-1.531 -12.303,-4.593c-3.094,-3.061 -4.763,-7.212 -5.007,-12.451l-0.033,-1.89Zm11.175,0.696c0,3.316 0.519,5.748 1.558,7.295c1.039,1.548 2.576,2.321 4.61,2.321c3.979,0 6.012,-3.061 6.101,-9.185l0,-1.127c0,-6.433 -2.056,-9.649 -6.168,-9.649c-3.736,0 -5.758,2.774 -6.068,8.323l-0.033,2.022Z" style="fill:#fffffe;fill-opacity:0;fill-rule:nonzero;stroke:#fff;stroke-width:2.67px;"/></svg>